<?xml version="1.0" encoding="utf-8"?>
<!-- Generator: Adobe Illustrator 16.0.0, SVG Export Plug-In . SVG Version: 6.00 Build 0)  -->
<!DOCTYPE svg PUBLIC "-//W3C//DTD SVG 1.1//EN" "http://www.w3.org/Graphics/SVG/1.1/DTD/svg11.dtd">
<svg version="1.1" id="Layer_1" xmlns="http://www.w3.org/2000/svg" xmlns:xlink="http://www.w3.org/1999/xlink" x="0px" y="0px"
	 width="111.77px" height="66.52px" viewBox="0 0 111.77 66.52" enable-background="new 0 0 111.77 66.52" xml:space="preserve">
<rect x="2.033" y="2.03" fill="none" stroke="#FFFFFF" stroke-width="4" stroke-miterlimit="10" width="107.75" height="62.5"/>
<rect x="2.033" y="1.875" fill="none" stroke="#FFFFFF" stroke-width="4" stroke-miterlimit="10" width="53.633" height="36.239"/>
<line fill="none" stroke="#FFFFFF" stroke-width="4" stroke-miterlimit="10" x1="28.85" y1="2.03" x2="28.85" y2="38.113"/>
<line fill="none" stroke="#FFFFFF" stroke-width="4" stroke-miterlimit="10" x1="2.033" y1="19.613" x2="55.908" y2="19.613"/>
<line fill="none" stroke="#FFFFFF" stroke-width="4" stroke-miterlimit="10" x1="55.667" y1="1.875" x2="2.033" y2="38.113"/>
<line fill="none" stroke="#FFFFFF" stroke-width="4" stroke-miterlimit="10" x1="3.367" y1="2.113" x2="55.908" y2="37.358"/>
<polygon fill="#FFFFFF" points="82.867,9.672 84.725,15.39 90.736,15.39 85.873,18.924 87.73,24.642 82.867,21.108 78.003,24.642 
	79.861,18.924 74.997,15.39 81.009,15.39 "/>
<polygon fill="#FFFFFF" points="70.867,21.672 72.725,27.39 78.736,27.39 73.873,30.924 75.73,36.642 70.867,33.108 66.003,36.642 
	67.861,30.924 62.997,27.39 69.009,27.39 "/>
<polygon fill="#FFFFFF" points="95.033,21.048 96.891,26.766 102.903,26.766 98.039,30.3 99.897,36.018 95.033,32.484 
	90.169,36.018 92.027,30.3 87.164,26.766 93.175,26.766 "/>
<polygon fill="#FFFFFF" points="83.534,42.548 85.392,48.266 91.403,48.266 86.54,51.8 88.397,57.518 83.534,53.984 78.67,57.518 
	80.528,51.8 75.664,48.266 81.676,48.266 "/>
</svg>
