<?xml version="1.0" encoding="utf-8"?>
<!-- Generator: Adobe Illustrator 16.0.0, SVG Export Plug-In . SVG Version: 6.00 Build 0)  -->
<!DOCTYPE svg PUBLIC "-//W3C//DTD SVG 1.1//EN" "http://www.w3.org/Graphics/SVG/1.1/DTD/svg11.dtd">
<svg version="1.1" id="Layer_1" xmlns="http://www.w3.org/2000/svg" xmlns:xlink="http://www.w3.org/1999/xlink" x="0px" y="0px"
	 width="79.264px" height="122.949px" viewBox="0 0 79.264 122.949" enable-background="new 0 0 79.264 122.949"
	 xml:space="preserve">
<image overflow="visible" width="134" height="162" xlink:href="../../../../Screen Shot 2018-03-13 at 4.49.32 PM.png"  transform="matrix(1 0 0 1 -289 -63)">
</image>
<g>
	<path fill="#FFFFFF" d="M2.27,1.777C3.429,0.592,4.904,0,6.694,0c2.396,0,4.148,0.794,5.256,2.383
		c0.612,0.892,0.94,1.787,0.985,2.686H9.928c-0.191-0.69-0.437-1.211-0.737-1.562c-0.536-0.625-1.33-0.938-2.382-0.938
		c-1.072,0-1.917,0.441-2.536,1.323s-0.928,2.13-0.928,3.745s0.326,2.824,0.979,3.628s1.482,1.206,2.489,1.206
		c1.031,0,1.818-0.345,2.359-1.035c0.299-0.371,0.548-0.928,0.745-1.67h2.988c-0.258,1.569-0.917,2.845-1.976,3.828
		c-1.06,0.983-2.417,1.475-4.072,1.475c-2.048,0-3.658-0.664-4.831-1.992C0.855,11.742,0.27,9.912,0.27,7.588
		C0.27,5.075,0.936,3.138,2.27,1.777z"/>
	<path fill="#FFFFFF" d="M22.05,4.239c0.742,0.333,1.355,0.857,1.839,1.575c0.436,0.632,0.719,1.366,0.848,2.2
		c0.075,0.489,0.105,1.193,0.092,2.113h-7.753c0.043,1.068,0.414,1.816,1.113,2.246c0.425,0.267,0.937,0.4,1.534,0.4
		c0.634,0,1.149-0.163,1.546-0.488c0.216-0.176,0.407-0.42,0.573-0.732h2.841c-0.075,0.631-0.419,1.273-1.032,1.924
		c-0.954,1.035-2.289,1.553-4.005,1.553c-1.417,0-2.667-0.437-3.749-1.31c-1.083-0.873-1.625-2.294-1.625-4.262
		c0-1.844,0.489-3.258,1.466-4.242s2.247-1.476,3.807-1.476C20.473,3.74,21.307,3.907,22.05,4.239z M17.886,6.644
		c-0.393,0.405-0.64,0.955-0.741,1.647h4.795c-0.051-0.739-0.298-1.299-0.741-1.682c-0.444-0.382-0.994-0.574-1.651-0.574
		C18.833,6.035,18.279,6.238,17.886,6.644z"/>
	<path fill="#FFFFFF" d="M32.149,3.774c0.036,0.003,0.116,0.008,0.239,0.015v2.852c-0.176-0.02-0.332-0.033-0.469-0.039
		s-0.248-0.01-0.332-0.01c-1.12,0-1.872,0.365-2.256,1.094c-0.215,0.41-0.322,1.042-0.322,1.895v5.088h-2.803V4.023h2.656v1.855
		c0.43-0.709,0.804-1.195,1.123-1.455c0.521-0.436,1.198-0.654,2.031-0.654C32.07,3.77,32.114,3.771,32.149,3.774z"/>
	<path fill="#FFFFFF" d="M32.926,6.104V4.121h1.484V1.152h2.754v2.969h1.729v1.982h-1.729v5.625c0,0.436,0.055,0.708,0.166,0.815
		s0.449,0.161,1.016,0.161c0.084,0,0.174-0.001,0.269-0.005s0.187-0.008,0.278-0.015v2.08l-1.318,0.049
		c-1.315,0.045-2.213-0.182-2.695-0.684c-0.312-0.319-0.469-0.811-0.469-1.475V6.104H32.926z"/>
	<path fill="#FFFFFF" d="M43.541,2.754h-2.822V0.186h2.822V2.754z M40.719,4.023h2.822v10.645h-2.822V4.023z"/>
	<path fill="#FFFFFF" d="M50.748,0.146c0.176,0.013,0.358,0.026,0.547,0.039v2.275c-0.13-0.006-0.257-0.011-0.381-0.015
		s-0.273-0.005-0.449-0.005c-0.436,0-0.703,0.12-0.801,0.359s-0.14,0.615-0.127,1.126v0.194h1.826v1.963h-1.826v8.584h-2.764V6.084
		h-1.562V4.121h1.523V3.438c0-1.133,0.25-1.976,0.752-2.529c0.449-0.521,1.364-0.781,2.744-0.781
		C50.4,0.127,50.572,0.133,50.748,0.146z M53.014,0.186h2.725v2.529h-2.725V0.186z M53.014,4.072h2.764v10.596h-2.764V4.072z"/>
	<path fill="#FFFFFF" d="M65.39,4.239c0.742,0.333,1.355,0.857,1.839,1.575c0.436,0.632,0.719,1.366,0.848,2.2
		c0.075,0.489,0.105,1.193,0.092,2.113h-7.753c0.043,1.068,0.414,1.816,1.113,2.246c0.425,0.267,0.937,0.4,1.534,0.4
		c0.634,0,1.149-0.163,1.546-0.488c0.216-0.176,0.407-0.42,0.573-0.732h2.841c-0.075,0.631-0.419,1.273-1.032,1.924
		c-0.954,1.035-2.289,1.553-4.005,1.553c-1.417,0-2.667-0.437-3.749-1.31c-1.083-0.873-1.625-2.294-1.625-4.262
		c0-1.844,0.489-3.258,1.466-4.242s2.247-1.476,3.807-1.476C63.812,3.74,64.647,3.907,65.39,4.239z M61.226,6.644
		c-0.393,0.405-0.64,0.955-0.741,1.647h4.795c-0.051-0.739-0.298-1.299-0.741-1.682c-0.444-0.382-0.994-0.574-1.651-0.574
		C62.173,6.035,61.619,6.238,61.226,6.644z"/>
	<path fill="#FFFFFF" d="M75.221,4.194c0.501,0.283,0.908,0.675,1.221,1.177V0.293h2.822v14.375h-2.705v-1.475
		c-0.397,0.631-0.85,1.09-1.357,1.377S74.062,15,73.307,15c-1.244,0-2.29-0.503-3.14-1.509s-1.274-2.296-1.274-3.872
		c0-1.816,0.418-3.246,1.255-4.287s1.955-1.562,3.354-1.562C74.146,3.77,74.719,3.911,75.221,4.194z M75.904,11.777
		c0.41-0.586,0.615-1.344,0.615-2.275c0-1.302-0.329-2.233-0.986-2.793c-0.404-0.338-0.873-0.508-1.406-0.508
		c-0.814,0-1.411,0.308-1.792,0.923s-0.571,1.378-0.571,2.29c0,0.983,0.194,1.769,0.581,2.358s0.975,0.884,1.763,0.884
		S75.494,12.363,75.904,11.777z"/>
</g>
<g>
	<path fill="#FFFFFF" d="M24.202,37.108h18.918c5.156,0,8.824,1.529,11.003,4.587c1.279,1.807,1.919,3.892,1.919,6.255
		c0,2.76-0.785,5.024-2.353,6.791c-0.814,0.934-1.986,1.787-3.515,2.562c2.244,0.854,3.921,1.817,5.034,2.889
		c1.966,1.906,2.949,4.538,2.949,7.893c0,2.82-0.889,5.372-2.667,7.655c-2.658,3.416-6.883,5.123-12.677,5.123H24.202V37.108z
		 M40.906,55.605c2.528,0,4.494-0.347,5.898-1.042c2.207-1.092,3.311-3.058,3.311-5.897c0-2.859-1.174-4.785-3.521-5.778
		c-1.325-0.556-3.292-0.834-5.899-0.834H30.01v13.552H40.906z M42.909,75.799c3.668,0,6.284-1.052,7.847-3.157
		c0.982-1.33,1.474-2.938,1.474-4.825c0-3.177-1.434-5.341-4.3-6.493c-1.523-0.615-3.538-0.923-6.043-0.923H30.01v15.399H42.909z"/>
</g>
<g>
	<path fill="#FFFFFF" d="M1.4,102.997c0.812-0.83,1.844-1.244,3.098-1.244c1.677,0,2.903,0.556,3.679,1.668
		c0.428,0.625,0.658,1.251,0.69,1.88H6.761c-0.134-0.483-0.306-0.848-0.516-1.094c-0.375-0.438-0.931-0.656-1.667-0.656
		c-0.75,0-1.342,0.309-1.775,0.926s-0.649,1.491-0.649,2.622s0.229,1.977,0.686,2.54s1.038,0.844,1.742,0.844
		c0.722,0,1.273-0.242,1.652-0.725c0.209-0.26,0.383-0.649,0.521-1.169h2.092c-0.18,1.098-0.642,1.992-1.383,2.68
		c-0.742,0.688-1.692,1.032-2.851,1.032c-1.434,0-2.561-0.465-3.381-1.395C0.41,109.972,0,108.691,0,107.064
		C0,105.305,0.467,103.95,1.4,102.997z"/>
	<path fill="#FFFFFF" d="M16.604,111.109c-0.629,0.776-1.583,1.165-2.864,1.165s-2.235-0.388-2.864-1.165s-0.943-1.711-0.943-2.804
		c0-1.075,0.314-2.006,0.943-2.793s1.583-1.182,2.864-1.182s2.235,0.394,2.864,1.182s0.943,1.719,0.943,2.793
		C17.548,109.398,17.233,110.333,16.604,111.109z M15.046,110.032c0.305-0.405,0.458-0.98,0.458-1.727
		c0-0.746-0.153-1.321-0.458-1.724c-0.305-0.402-0.743-0.604-1.312-0.604s-1.008,0.202-1.316,0.604
		c-0.308,0.403-0.461,0.978-0.461,1.724c0,0.747,0.154,1.322,0.461,1.727c0.308,0.405,0.746,0.607,1.316,0.607
		S14.741,110.437,15.046,110.032z"/>
	<path fill="#FFFFFF" d="M23.082,104.395c0.025,0.002,0.081,0.006,0.167,0.01v1.996c-0.123-0.014-0.232-0.023-0.328-0.027
		s-0.173-0.007-0.232-0.007c-0.784,0-1.31,0.255-1.579,0.766c-0.15,0.287-0.226,0.729-0.226,1.326v3.562h-1.962v-7.451h1.859v1.299
		c0.301-0.497,0.563-0.836,0.786-1.019c0.365-0.305,0.838-0.458,1.422-0.458C23.026,104.392,23.057,104.393,23.082,104.395z"/>
	<path fill="#FFFFFF" d="M30.657,105.369c0.608,0.643,0.912,1.586,0.912,2.83c0,1.312-0.297,2.313-0.891,3.001
		c-0.594,0.688-1.359,1.032-2.294,1.032c-0.596,0-1.092-0.148-1.486-0.444c-0.215-0.164-0.426-0.403-0.633-0.718v3.883h-1.928
		v-10.384h1.866v1.101c0.211-0.324,0.436-0.579,0.674-0.766c0.436-0.333,0.954-0.499,1.555-0.499
		C29.307,104.405,30.049,104.727,30.657,105.369z M29.162,106.771c-0.265-0.442-0.694-0.663-1.288-0.663
		c-0.714,0-1.204,0.335-1.471,1.005c-0.138,0.355-0.207,0.807-0.207,1.354c0,0.866,0.232,1.474,0.697,1.825
		c0.276,0.205,0.604,0.308,0.981,0.308c0.548,0,0.966-0.209,1.254-0.629c0.288-0.419,0.432-0.978,0.432-1.675
		C29.559,107.721,29.426,107.212,29.162,106.771z"/>
	<path fill="#FFFFFF" d="M39.156,111.109c-0.629,0.776-1.583,1.165-2.864,1.165s-2.235-0.388-2.864-1.165s-0.943-1.711-0.943-2.804
		c0-1.075,0.314-2.006,0.943-2.793s1.583-1.182,2.864-1.182s2.235,0.394,2.864,1.182s0.943,1.719,0.943,2.793
		C40.1,109.398,39.785,110.333,39.156,111.109z M37.598,110.032c0.305-0.405,0.458-0.98,0.458-1.727
		c0-0.746-0.153-1.321-0.458-1.724c-0.305-0.402-0.743-0.604-1.312-0.604s-1.008,0.202-1.316,0.604
		c-0.308,0.403-0.461,0.978-0.461,1.724c0,0.747,0.154,1.322,0.461,1.727c0.308,0.405,0.746,0.607,1.316,0.607
		S37.292,110.437,37.598,110.032z"/>
	<path fill="#FFFFFF" d="M45.633,104.395c0.025,0.002,0.081,0.006,0.167,0.01v1.996c-0.123-0.014-0.232-0.023-0.328-0.027
		s-0.173-0.007-0.232-0.007c-0.784,0-1.31,0.255-1.579,0.766c-0.15,0.287-0.226,0.729-0.226,1.326v3.562h-1.962v-7.451h1.859v1.299
		c0.301-0.497,0.563-0.836,0.786-1.019c0.365-0.305,0.838-0.458,1.422-0.458C45.578,104.392,45.608,104.393,45.633,104.395z"/>
	<path fill="#FFFFFF" d="M49.894,107.488c0.363-0.045,0.622-0.103,0.778-0.171c0.28-0.119,0.42-0.303,0.42-0.554
		c0-0.305-0.107-0.516-0.322-0.632s-0.53-0.174-0.946-0.174c-0.466,0-0.797,0.114-0.991,0.342c-0.139,0.168-0.231,0.396-0.277,0.684
		h-1.88c0.041-0.652,0.224-1.187,0.549-1.606c0.517-0.656,1.405-0.984,2.664-0.984c0.819,0,1.547,0.162,2.184,0.485
		s0.954,0.934,0.954,1.832v3.418c0,0.237,0.004,0.524,0.014,0.861c0.014,0.255,0.052,0.428,0.116,0.52s0.16,0.167,0.287,0.226v0.287
		h-2.119c-0.059-0.15-0.1-0.292-0.123-0.424s-0.041-0.283-0.055-0.451c-0.271,0.292-0.582,0.54-0.935,0.745
		c-0.422,0.242-0.898,0.362-1.43,0.362c-0.679,0-1.239-0.192-1.681-0.578s-0.664-0.931-0.664-1.637c0-0.916,0.356-1.579,1.067-1.989
		c0.39-0.223,0.964-0.383,1.722-0.479L49.894,107.488z M51.085,108.397c-0.125,0.078-0.251,0.14-0.378,0.188
		s-0.301,0.092-0.523,0.133l-0.443,0.082c-0.416,0.073-0.714,0.162-0.896,0.267c-0.307,0.178-0.46,0.454-0.46,0.827
		c0,0.333,0.094,0.573,0.281,0.721c0.187,0.148,0.415,0.222,0.684,0.222c0.426,0,0.818-0.123,1.177-0.369
		c0.358-0.246,0.544-0.695,0.559-1.347V108.397z"/>
	<path fill="#FFFFFF" d="M53.963,106.025v-1.388h1.039v-2.078h1.928v2.078h1.21v1.388h-1.21v3.938c0,0.305,0.039,0.496,0.116,0.571
		s0.314,0.113,0.711,0.113c0.059,0,0.122-0.001,0.188-0.003s0.131-0.006,0.195-0.01v1.456l-0.923,0.034
		c-0.92,0.032-1.549-0.127-1.887-0.479c-0.219-0.223-0.328-0.567-0.328-1.032v-4.587H53.963z"/>
	<path fill="#FFFFFF" d="M61.394,103.681h-1.976v-1.798h1.976V103.681z M59.418,104.569h1.976v7.451h-1.976V104.569z"/>
	<path fill="#FFFFFF" d="M69.494,111.109c-0.629,0.776-1.583,1.165-2.864,1.165s-2.235-0.388-2.864-1.165s-0.943-1.711-0.943-2.804
		c0-1.075,0.314-2.006,0.943-2.793s1.583-1.182,2.864-1.182s2.235,0.394,2.864,1.182s0.943,1.719,0.943,2.793
		C70.438,109.398,70.123,110.333,69.494,111.109z M67.936,110.032c0.305-0.405,0.458-0.98,0.458-1.727
		c0-0.746-0.153-1.321-0.458-1.724c-0.305-0.402-0.743-0.604-1.312-0.604s-1.008,0.202-1.316,0.604
		c-0.308,0.403-0.461,0.978-0.461,1.724c0,0.747,0.154,1.322,0.461,1.727c0.308,0.405,0.746,0.607,1.316,0.607
		S67.63,110.437,67.936,110.032z"/>
	<path fill="#FFFFFF" d="M77.84,104.997c0.488,0.403,0.732,1.072,0.732,2.006v5.018h-1.996v-4.532c0-0.392-0.052-0.693-0.156-0.902
		c-0.19-0.383-0.552-0.574-1.085-0.574c-0.656,0-1.106,0.28-1.351,0.841c-0.126,0.296-0.19,0.674-0.19,1.135v4.033h-1.948v-7.438
		h1.887v1.087c0.25-0.383,0.485-0.659,0.708-0.827c0.399-0.301,0.905-0.451,1.518-0.451
		C76.725,104.392,77.353,104.593,77.84,104.997z"/>
</g>
<rect x="1.366" y="117.949" fill="#FFFFFF" width="76.667" height="5"/>
<circle fill="none" stroke="#FFFFFF" stroke-width="5" stroke-miterlimit="10" cx="38.871" cy="58.78" r="36.497"/>
</svg>
