<?xml version="1.0" encoding="utf-8"?>
<!-- Generator: Adobe Illustrator 16.0.0, SVG Export Plug-In . SVG Version: 6.00 Build 0)  -->
<!DOCTYPE svg PUBLIC "-//W3C//DTD SVG 1.1//EN" "http://www.w3.org/Graphics/SVG/1.1/DTD/svg11.dtd">
<svg version="1.1" id="Layer_1" xmlns="http://www.w3.org/2000/svg" xmlns:xlink="http://www.w3.org/1999/xlink" x="0px" y="0px"
	 width="111.708px" height="66.52px" viewBox="0 0 111.708 66.52" enable-background="new 0 0 111.708 66.52" xml:space="preserve">
<rect x="2.033" y="2.03" fill="none" stroke="#FFFFFF" stroke-width="4" stroke-miterlimit="10" width="107.75" height="62.5"/>
<rect x="2.275" y="2.03" fill="none" stroke="#FFFFFF" stroke-width="4" stroke-miterlimit="10" width="53.633" height="36.239"/>
<polygon fill="#FFFFFF" points="69.951,23.042 71.119,26.002 74.161,25.07 72.576,27.829 75.201,29.626 72.057,30.106 72.288,33.28 
	69.951,31.12 67.614,33.28 67.846,30.106 64.701,29.626 67.326,27.829 65.741,25.07 68.783,26.002 "/>
<polygon fill="#FFFFFF" points="27.951,42.639 29.972,47.759 35.235,46.147 32.492,50.919 37.034,54.029 31.594,54.86 
	31.995,60.351 27.951,56.614 23.907,60.351 24.308,54.86 18.868,54.029 23.41,50.919 20.667,46.147 25.93,47.759 "/>
<polygon fill="#FFFFFF" points="100.618,19.542 101.786,22.502 104.828,21.57 103.243,24.329 105.868,26.126 102.724,26.606 
	102.955,29.78 100.618,27.62 98.281,29.78 98.513,26.606 95.368,26.126 97.993,24.329 96.408,21.57 99.45,22.502 "/>
<polygon fill="#FFFFFF" points="86.452,6.685 87.397,9.08 89.86,8.326 88.577,10.559 90.702,12.014 88.156,12.403 88.344,14.972 
	86.452,13.224 84.561,14.972 84.748,12.403 82.202,12.014 84.327,10.559 83.044,8.326 85.507,9.08 "/>
<polygon fill="#FFFFFF" points="86.952,50.851 87.897,53.247 90.36,52.493 89.077,54.726 91.202,56.181 88.656,56.569 
	88.844,59.138 86.952,57.39 85.061,59.138 85.248,56.569 82.702,56.181 84.827,54.726 83.544,52.493 86.007,53.247 "/>
<polygon fill="#FFFFFF" points="93.119,32.326 93.842,34.158 95.726,33.582 94.744,35.289 96.369,36.401 94.422,36.699 
	94.565,38.663 93.119,37.327 91.673,38.663 91.816,36.699 89.869,36.401 91.494,35.289 90.513,33.582 92.396,34.158 "/>
<polyline fill="none" stroke="#FFFFFF" stroke-width="4" stroke-miterlimit="10" points="24.616,3.078 24.616,14.983 3.109,14.983 
	"/>
<polyline fill="none" stroke="#FFFFFF" stroke-width="4" stroke-miterlimit="10" points="2.275,23.042 24.616,23.042 24.616,38.113 
	"/>
<polyline fill="none" stroke="#FFFFFF" stroke-width="4" stroke-miterlimit="10" points="32.282,38.113 32.282,23.042 
	55.908,23.042 "/>
<polyline fill="none" stroke="#FFFFFF" stroke-width="4" stroke-miterlimit="10" points="32.282,2.113 32.282,14.983 55.908,14.983 
	"/>
<line fill="none" stroke="#FFFFFF" stroke-width="4" stroke-miterlimit="10" x1="9.783" y1="1.875" x2="24.616" y2="14.983"/>
<line fill="none" stroke="#FFFFFF" stroke-width="4" stroke-miterlimit="10" x1="3.109" y1="6.685" x2="12.449" y2="14.983"/>
<line fill="none" stroke="#FFFFFF" stroke-width="4" stroke-miterlimit="10" x1="47.782" y1="2.113" x2="31.782" y2="14.983"/>
<line fill="none" stroke="#FFFFFF" stroke-width="4" stroke-miterlimit="10" x1="55.908" y1="4.946" x2="44.096" y2="14.279"/>
<line fill="none" stroke="#FFFFFF" stroke-width="4" stroke-miterlimit="10" x1="42.949" y1="23.042" x2="55.908" y2="32.326"/>
<line fill="none" stroke="#FFFFFF" stroke-width="4" stroke-miterlimit="10" x1="32.282" y1="23.042" x2="51.116" y2="38.113"/>
<line fill="none" stroke="#FFFFFF" stroke-width="4" stroke-miterlimit="10" x1="24.616" y1="25.446" x2="7.779" y2="38.113"/>
<line fill="none" stroke="#FFFFFF" stroke-width="4" stroke-miterlimit="10" x1="13.862" y1="23.042" x2="2.033" y2="31.78"/>
</svg>
