<?xml version="1.0" encoding="utf-8"?>
<!-- Generator: Adobe Illustrator 16.0.0, SVG Export Plug-In . SVG Version: 6.00 Build 0)  -->
<!DOCTYPE svg PUBLIC "-//W3C//DTD SVG 1.1//EN" "http://www.w3.org/Graphics/SVG/1.1/DTD/svg11.dtd">
<svg version="1.1" id="Layer_1" xmlns="http://www.w3.org/2000/svg" xmlns:xlink="http://www.w3.org/1999/xlink" x="0px" y="0px"
	 width="45.69px" height="39.97px" viewBox="0 0 45.69 39.97" enable-background="new 0 0 45.69 39.97" xml:space="preserve">
<g id="_x30_yTYOP.tif">
	<g>
		<path fill-rule="evenodd" clip-rule="evenodd" d="M10.597,5.244c0.163,0,0.293,0,0.424,0c10.8,0,21.601,0,32.4,0
			c1.225,0,2.104,0.687,2.281,1.819c0.046,0.294,0.02,0.613-0.042,0.907c-0.918,4.387-1.844,8.772-2.777,13.156
			c-0.286,1.342-1.126,2.032-2.612,2.189c-3.993,0.423-7.987,0.843-11.979,1.27c-3.776,0.404-7.551,0.813-11.326,1.22
			c-0.648,0.07-1.297,0.136-1.973,0.207c0.144,0.699,0.277,1.359,0.423,2.017c0.013,0.06,0.104,0.125,0.172,0.143
			c0.092,0.024,0.195,0.007,0.293,0.007c7.797,0,15.594,0,23.391,0.001c0.88,0,1.513,0.484,1.7,1.29
			c0.224,0.966-0.492,1.921-1.487,1.979c-0.109,0.006-0.218,0.004-0.328,0.004c-8.048,0-16.096,0-24.145,0
			c-1.477,0-2.383-0.755-2.688-2.202c-1.321-6.274-2.648-12.547-3.974-18.82C7.866,8.136,7.375,5.844,6.899,3.548
			C6.854,3.328,6.772,3.27,6.56,3.271c-1.649,0.007-3.298,0.01-4.947,0C0.807,3.268,0.155,2.687,0.021,1.891
			c-0.127-0.756,0.329-1.531,1.07-1.786C1.284,0.04,1.496,0.007,1.7,0.006c1.922-0.007,3.844-0.008,5.766-0.003
			c1.203,0.003,2.18,0.792,2.44,1.975C10.143,3.052,10.362,4.13,10.597,5.244z M42.195,8.553c-10.302,0-20.583,0-30.893,0
			c1.007,4.769,2.006,9.499,3.007,14.237c1.095-0.115,2.147-0.223,3.198-0.336c2.343-0.251,4.686-0.506,7.029-0.756
			c2.354-0.252,4.708-0.498,7.062-0.749c2.592-0.277,5.184-0.562,7.778-0.825c0.311-0.031,0.413-0.147,0.473-0.437
			c0.503-2.434,1.021-4.865,1.535-7.296C41.655,11.113,41.924,9.834,42.195,8.553z"/>
		<path fill-rule="evenodd" clip-rule="evenodd" d="M38.726,36.722c-0.012,1.798-1.49,3.255-3.294,3.248
			c-1.811-0.007-3.272-1.498-3.255-3.319c0.018-1.796,1.501-3.244,3.31-3.229C37.285,33.436,38.738,34.917,38.726,36.722z"/>
		<path fill-rule="evenodd" clip-rule="evenodd" d="M14.792,36.706c-0.005-1.81,1.451-3.281,3.25-3.285
			c1.82-0.004,3.301,1.468,3.296,3.279c-0.004,1.798-1.475,3.268-3.274,3.27C16.259,39.972,14.797,38.513,14.792,36.706z"/>
	</g>
</g>
<g>
	<path d="M29.113,11.493c0.465,0.814,0.698,1.971,0.698,3.47s-0.233,2.653-0.698,3.463s-1.276,1.215-2.433,1.215
		s-1.968-0.405-2.433-1.215s-0.698-1.964-0.698-3.463s0.233-2.655,0.698-3.47c0.465-0.814,1.276-1.221,2.433-1.221
		S28.647,10.679,29.113,11.493z M25.627,17.358c0.171,0.553,0.522,0.83,1.052,0.83s0.878-0.276,1.043-0.83
		c0.165-0.553,0.247-1.352,0.247-2.396c0-1.094-0.083-1.904-0.247-2.43c-0.165-0.526-0.513-0.789-1.043-0.789
		s-0.881,0.263-1.052,0.789c-0.171,0.526-0.257,1.336-0.257,2.43C25.371,16.006,25.457,16.805,25.627,17.358z"/>
</g>
</svg>
